<?xml version="1.0" encoding="UTF-8"?>
<svg version="1.1" viewBox="0 0 2000 383" xmlns="http://www.w3.org/2000/svg">
<g transform="translate(-1.2121 -13.808)">
<svg width="2e3" height="383" data-background-color="#ffffff" viewBox="0 0 396 76" xmlns="http://www.w3.org/2000/svg" xmlns:xlink="http://www.w3.org/1999/xlink">
<g transform="translate(.24 2.7399)">
<svg width="395.52" height="73.137" viewBox="0 0 395.52 73.13696175517757">
<svg width="395.52" height="73.137" viewBox="0 0 504.92623776440786 93.36764497512438">
<g transform="translate(109.41 12.904)">
<svg width="395.52" height="67.56" viewBox="0 0 395.52 67.55980099502487">
<svg width="395.52" height="67.56" viewBox="0 0 395.52 67.55980099502487">
<svg width="395.52" height="67.56" viewBox="0 0 395.52 67.55980099502487">
<g>
<svg width="395.52" height="67.56" data-palette-color="#0080ff" viewBox="0.05 -40.35 241.17 41.2">
<path class="wordmark-text-0" d="m12.05-35.5q3.25 0 5.73 1.1 2.47 1.1 4.52 3.3l-3.45 4.1q-3-2.75-5.95-2.75-1.7 0-2.65 1t-0.95 2.65q0 1.6 1.1 2.62 1.1 1.03 4.25 2.38 2.9 1.3 4.7 2.67 1.8 1.38 2.73 3.38 0.92 2 0.92 4.95 0 3.15-1.42 5.65-1.43 2.5-4.08 3.9t-6.2 1.4q-3.7 0-6.4-1.3t-4.85-3.6l3.75-4.15q1.8 1.6 3.43 2.42 1.62 0.83 3.47 0.83 2.05 0 3.1-1.23 1.05-1.22 1.05-3.32 0-1.9-1.05-3.13-1.05-1.22-3.8-2.32-4.8-2-6.8-4.43-2-2.42-2-6.12 0-2.95 1.4-5.23 1.4-2.27 3.88-3.52 2.47-1.25 5.57-1.25zm24.4 8.1q2.3 0 4.15 0.8t3.45 2.45l-3.1 4.15q-2.05-1.65-3.9-1.65-2.05 0-3.05 1.87-1 1.88-1 6.68 0 4.55 1.05 6.3t2.95 1.75q1 0 1.85-0.35t1.95-1.2l3.25 4.35q-3.25 3.1-7.5 3.1-5.4 0-8.4-3.53-3-3.52-3-10.37 0-4.45 1.37-7.68 1.38-3.22 3.93-4.95 2.55-1.72 6-1.72zm23.3 0q2.84 0 4.47 2.05 1.62 2.05 1.62 5.5v19.85h-7.54v-19.05q0-2.6-1.45-2.6t-3.15 3.2v18.45h-7.55v-37.1l7.55-0.8v14.15q1.25-1.9 2.7-2.78 1.45-0.87 3.35-0.87zm20.49 0q5.2 0 8.13 3.55 2.92 3.55 2.92 10.6 0 6.75-2.92 10.42-2.93 3.68-8.13 3.68t-8.12-3.58q-2.93-3.57-2.93-10.57 0-6.85 2.93-10.48 2.92-3.62 8.12-3.62zm0 5.6q-1.75 0-2.52 1.92-0.78 1.93-0.78 6.58 0 4.8 0.78 6.7 0.77 1.9 2.52 1.9t2.53-1.93q0.77-1.92 0.77-6.62 0-4.75-0.77-6.65-0.78-1.9-2.53-1.9zm21 22.65q-3.15 0-4.9-1.85t-1.75-5.05v-31.05l7.55-0.8v31.5q0 1.25 1.05 1.25 0.3 0 0.9-0.15l1.35 5.2q-0.8 0.4-1.9 0.68-1.1 0.27-2.3 0.27zm24.55-7.9q0 1.25 0.3 1.85t1.05 0.95l-1.55 4.95q-2.15-0.2-3.53-1.03-1.37-0.82-2.12-2.57-2.3 3.75-6.55 3.75-3.3 0-5.25-2.28-1.95-2.27-1.95-6.02 0-4.35 2.7-6.63 2.7-2.27 7.9-2.27h1.6v-1.4q0-2.4-0.73-3.33-0.72-0.92-2.57-0.92-2.3 0-5.7 1.35l-1.7-4.8q2.05-0.95 4.37-1.45 2.33-0.5 4.43-0.5 4.7 0 7 2.27 2.3 2.28 2.3 6.98v11.1zm-10.1 2.55q0.85 0 1.55-0.65t1.15-1.85v-5.15h-0.9q-2.05 0-2.98 0.97-0.92 0.98-0.92 3.08 0 1.75 0.55 2.67 0.55 0.93 1.55 0.93zm22.8-22.9q2.45 0 4.6 0.85t3.75 2.4l-2.75 4.05q-2.75-1.9-4.95-1.9-1.2 0-1.88 0.6-0.67 0.6-0.67 1.65 0 1.15 0.85 1.87 0.85 0.73 3.65 1.88 3.35 1.4 4.95 3.25t1.6 4.95q0 4-2.83 6.32-2.82 2.33-7.32 2.33-2.8 0-5.25-1.03-2.45-1.02-4.2-2.87l3.55-3.9q3 2.45 5.5 2.45 1.35 0 2.12-0.7 0.78-0.7 0.78-1.95 0-1.4-0.88-2.23-0.87-0.82-3.57-1.92-3.4-1.4-4.9-3.23-1.5-1.82-1.5-4.67 0-3.6 2.5-5.9t6.85-2.3zm24.04 21.55 2.5 4.6q-1.25 1.05-2.9 1.58-1.65 0.52-3.35 0.52-3.85 0-5.8-2.2t-1.95-5.9v-14h-2.75v-5.3h2.75v-5.8l7.55-0.85v6.65h4.95l-0.8 5.3h-4.15v13.95q0 2.15 1.8 2.15 1 0 2.15-0.7zm4.2-20.7h7.55v26.55h-7.55v-26.55zm3.7-13.8q1.95 0 3.13 1.22 1.17 1.23 1.17 3.13 0 1.85-1.2 3.07-1.2 1.23-3.1 1.23t-3.1-1.23q-1.2-1.22-1.2-3.07 0-1.9 1.2-3.13 1.2-1.22 3.1-1.22zm18.65 12.95q2.3 0 4.15 0.8t3.45 2.45l-3.1 4.15q-2.05-1.65-3.9-1.65-2.05 0-3.05 1.87-1 1.88-1 6.68 0 4.55 1.05 6.3t2.95 1.75q1 0 1.85-0.35t1.95-1.2l3.25 4.35q-3.25 3.1-7.5 3.1-5.4 0-8.4-3.53-3-3.52-3-10.37 0-4.45 1.37-7.68 1.38-3.22 3.93-4.95 2.55-1.72 6-1.72zm42.44 27.4h-7.95l-1.4-7.6h-7.7l-1.35 7.6h-7.8l8.4-34.65h9.4l8.4 34.65zm-13.2-28.9-2.8 15.65h5.65l-2.85-15.65zm15.05-5.75h7.85v34.65h-7.85v-34.65z" data-fill-palette-color="primary"/>
</svg>
</g>
</svg>
</svg>
</svg>
</g>
<svg width="93.457" height="93.368" viewBox="0 0 93.4569901847064 93.36764497512438">
<svg class="icon-icon-0" width="93.457" height="93.368" enable-background="new 0 0 98.324 98.229" data-fill-palette-color="accent" version="1.1" viewBox="0 0 98.326 98.232" xml:space="preserve" xmlns="http://www.w3.org/2000/svg" xmlns:xlink="http://www.w3.org/1999/xlink"><circle cx="10.487" cy="59.603" r="8.2" data-fill-palette-color="accent"/><circle cx="10.487" cy="59.603" r="8.2" data-fill-palette-color="accent"/><path d="m44.938 59.603c0 4.523-3.672 8.191-8.196 8.191s-8.193-3.668-8.193-8.191a8.195 8.195 0 0 1 16.389 0" data-fill-palette-color="accent"/><circle cx="64.332" cy="59.603" r="8.2" data-fill-palette-color="accent"/><line x1="2.292" x2="2.292" y1="46.725" y2="49.066" fill="none"/><path d="m85.854 44.288c-0.709 0-1.416-0.274-1.992-0.83l-21.874-21.109c-1.283-1.236-1.436-3.411-0.33-4.854 1.098-1.442 3.031-1.608 4.311-0.372l21.871 21.102c1.287 1.239 1.438 3.414 0.332 4.859-0.598 0.796-1.46 1.204-2.318 1.204" data-fill-palette-color="accent"/><g fill="#0080ff" data-fill-palette-color="accent"><g fill="#0080ff" data-fill-palette-color="accent"><path d="m63.98 16.292c-0.861 0-1.719 0.407-2.322 1.201-1.104 1.443-0.953 3.618 0.33 4.854l10.746 10.373v-9.069l-6.769-6.529a2.83 2.83 0 0 0-1.985-0.83m6.363-16.292h-67.952c-1.319 0-2.391 0.979-2.391 2.183v42.691c0 1.203 1.072 2.181 2.391 2.181h67.952c1.32 0 2.392-0.978 2.392-2.181v-8.966l-12.339-11.906c-2.131-2.05-2.377-5.522-0.562-7.898 1.02-1.337 2.529-2.104 4.146-2.104 1.328 0 2.604 0.521 3.582 1.473l5.172 4.992v-18.282c0-1.204-1.07-2.183-2.391-2.183m0 44.874h5e-3l-5e-3 1.088z" fill="#000" data-fill-palette-color="accent"/></g></g><path d="m74.814 76.243c-0.012-3.344-3.133-6.058-6.967-6.062h-7.025c-3.775 0-6.84 2.627-6.955 5.894 0 0.032-0.021 0.062-0.021 0.097v19.896c0 1.17 1.024 2.116 2.293 2.116h16.389c1.266 0 2.291-0.946 2.291-2.116v-19.814zm-13.992-1.829h7.023c0.098 0 0.188 0.035 0.286 0.047h-7.604c0.101-0.012 0.191-0.047 0.295-0.047" data-fill-palette-color="accent"/><path d="m20.971 76.244c-0.012-3.344-3.131-6.059-6.968-6.061h-7.027c-3.775 0-6.84 2.63-6.954 5.894-2e-3 0.032-0.022 0.065-0.022 0.095v19.896c0 1.171 1.028 2.114 2.292 2.114h16.389c1.268 0 2.292-0.943 2.292-2.114v-19.814zm-13.995-1.827h7.022c0.101 0 0.188 0.035 0.285 0.044h-7.592c0.099-9e-3 0.184-0.044 0.285-0.044" data-fill-palette-color="accent"/><path d="m48.235 95.381c-0.014-0.116 7e-3 -0.229-0.02-0.345l-4.423-19.469c-0.036-0.16-0.119-0.279-0.177-0.426-0.054-0.156-0.13-0.301-0.195-0.455 0-3e-3 0-0.015-7e-3 -0.02-1.027-2.496-3.15-4.232-5.618-4.232h-2.101c-2.33 0-4.352 1.562-5.438 3.832-0.071 0.106-0.11 0.246-0.17 0.369-0.071 0.175-0.155 0.332-0.213 0.506 0 0.017-0.011 0.023-0.016 0.041l-0.049 0.214c-0.13 0.416-0.235 0.854-0.3 1.303l-4.235 18.333c-0.021 0.092-5e-3 0.183-0.013 0.275-0.016 0.122-0.061 0.229-0.061 0.35 0 0.058 0.025 0.108 0.029 0.171 6e-3 0.211 0.052 0.402 0.101 0.599 0.025 0.104 0.045 0.203 0.084 0.297 0.087 0.237 0.205 0.439 0.346 0.627 0.029 0.041 0.054 0.086 0.087 0.126 0.166 0.196 0.361 0.354 0.582 0.47 0.028 0.021 0.052 0.035 0.077 0.053 0.084 0.039 0.148 0.108 0.233 0.141 0.188 0.062 0.377 0.091 0.563 0.091 0.066 0 0.129-0.029 0.195-0.039l18.69 0.039h4e-3c0.185-1e-3 0.369-0.027 0.551-0.084 0.046-0.02 0.08-0.059 0.127-0.082 0.135-0.055 0.255-0.135 0.38-0.229 0.113-0.08 0.225-0.156 0.32-0.262 0.101-0.107 0.179-0.229 0.258-0.355 0.083-0.136 0.165-0.256 0.223-0.403 0.059-0.14 0.086-0.286 0.123-0.439a3 3 0 0 0 0.09-0.506c0-0.059 0.026-0.104 0.026-0.156 2e-3 -0.121-0.039-0.222-0.053-0.335m-6.647-10.115v-0.239l0.053 0.239z" data-fill-palette-color="accent"/><g data-fill-palette-color="accent"><path d="m87.837 23.777c4.646 0 8.42-3.771 8.42-8.426a8.423 8.423 0 1 0-16.846 0 8.426 8.426 0 0 0 8.426 8.426" data-fill-palette-color="accent"/><path d="m98.318 33.232c-0.01-4.174-3.131-7.572-6.967-7.577h-7.027c-3.777 0-6.84 3.29-6.955 7.367 0 0.046-0.021 0.082-0.021 0.125v24.879c0 1.466 1.025 2.649 2.291 2.649h16.396c1.266 0 2.291-1.186 2.291-2.649v-24.778c-2e-3 -6e-3 -8e-3 -0.011-8e-3 -0.016" data-fill-palette-color="accent"/></g><rect x="5.412" y="72.865" width="10" height="8" data-fill-palette-color="accent"/><rect x="56.787" y="73.615" width="15.25" height="7" data-fill-palette-color="accent"/></svg>
</svg>
</svg>
</svg>
<rect width="395.52" height="73.137" fill="none" visibility="hidden"/>
</g>
</svg>
</g>
</svg>
